# xmcd CD database file generated by LOLA_Freedb v0.9beta0
# 
# Track frame offsets:
#      150
#      11868
#      24570
#      36144
#      48338
#      61222
#      73558
#      85173
#      97688
#      109934
#      122018
#      133241
#      147905
#      158740
#      170508
#      182075
# 
# Disc length: 2589 seconds
# 
# Revision: 0 
# Processed by: cddbd v1.5.2PL0 Copyright (c) Steve Scherf et al.
# Submitted via: LOLA_Freedb v0.9beta0
# 
DISCID=d50a1b10
DTITLE=Jimmy Reed - High and Lonesome (Charly Records LP)
DYEAR=1900
DGENRE=
TTITLE0=Jimmy Reed - SHE DON'T WANT ME NO MORE
TTITLE1=Jimmy Reed - HIGH AND LONESOME
TTITLE2=Jimmy Reed - I'M GONNA RUIN YOU
TTITLE3=Jimmy Reed - PRETTY THING
TTITLE4=Jimmy Reed - YOU UPSET MY MIND
TTITLE5=Jimmy Reed - JIMMIES BOOGIE
TTITLE6=Jimmy Reed - BABY DON'T SAY THAT NO MORE
TTITLE7=Jimmy Reed - I DON'T GO FOR THAT
TTITLE8=Jimmy Reed - I LOVE YOU BABY
TTITLE9=Jimmy Reed - HONEY, DON'T LET ME GO
TTITLE10=Jimmy Reed - IT'S YOU BABY
TTITLE11=Jimmy Reed - HONEY, WHERE YOU GOING
TTITLE12=Jimmy Reed - YOU KNOW I LOVE YOU
TTITLE13=Jimmy Reed - PLEASE DON'T
TTITLE14=Jimmy Reed - YOU GONNA NEED MY HELP
TTITLE15=Jimmy Reed - SUGAR SUGAR
EXTD=
EXTT0=
EXTT1=
EXTT2=
EXTT3=
EXTT4=
EXTT5=
EXTT6=
EXTT7=
EXTT8=
EXTT9=
EXTT10=
EXTT11=
EXTT12=
EXTT13=
EXTT14=
EXTT15=
PLAYORDER=
